<svg xmlns="http://www.w3.org/2000/svg" viewBox="0 0 512 512">
  <defs>
    <linearGradient id="grad" x1="0%" y1="0%" x2="100%" y2="100%">
      <stop offset="0%" stop-color="#34d399" />
      <stop offset="50%" stop-color="#22d3ee" />
      <stop offset="100%" stop-color="#34d399" />
    </linearGradient>
  </defs>
  
  <rect width="512" height="512" rx="128" fill="#09090b" />
  
  <g transform="scale(13) translate(7.5, 7.5)" fill="none" stroke="url(#grad)" stroke-width="2" stroke-linecap="round" stroke-linejoin="round">
    <path d="M12 5a3 3 0 1 0-5.997.125 4 4 0 0 0-2.526 5.77 4 4 0 0 0 .556 6.588A4 4 0 1 0 12 18Z"/>
    <path d="M12 5a3 3 0 1 1 5.997.125 4 4 0 0 1 2.526 5.77 4 4 0 0 1-.556 6.588A4 4 0 1 1 12 18Z"/>
    <path d="M15 13h4.5a2 2 0 0 1 1.9 1.3l.5 1.5"/>
    <path d="M9 13H4.5a2 2 0 0 0-1.9 1.3l-.5 1.5"/>
    <path d="M15 17h4.5a2 2 0 0 0 1.9-1.3l.5-1.5"/>
    <path d="M9 17H4.5a2 2 0 0 1-1.9-1.3l-.5-1.5"/>
  </g>
</svg>
